# xmcd
#
# Track frame offsets: 
#        150
#        28465
#        60255
#        86457
#        98630
#        105930
#        126422
#        163760
#        172720
#        181422
#        191387
#
# Disc length: 2851 seconds
#
# Revision: 1
# Processed by: cddbd v1.5.2PL0 Copyright (c) Steve Scherf et al.
# Submitted via: ExactAudioCopy v0.99pb4
#
DISCID=800b210b
DTITLE=Chris Rea - blue street (five guitars)
DYEAR=2003
DGENRE=Blues
TTITLE0=blue miles
TTITLE1=blue street
TTITLE2=big c
TTITLE3=big c big sea
TTITLE4=Hofner break
TTITLE5=heading for the city 
TTITLE6=1st snow mingus 
TTITLE7=piano break
TTITLE8=still going to a go go
TTITLE9=are you ready
TTITLE10=funk 48
EXTD=
EXTT0=
EXTT1=
EXTT2=
EXTT3=
EXTT4=
EXTT5=
EXTT6=
EXTT7=
EXTT8=
EXTT9=
EXTT10=
PLAYORDER=
